<svg width="17" height="16" viewBox="0 0 17 16" fill="none" xmlns="http://www.w3.org/2000/svg">
<path d="M8.93002 13.2025L12.71 15.6025C13.1975 15.91 13.7975 15.4525 13.655 14.89L12.56 10.585C12.5304 10.4657 12.5351 10.3404 12.5736 10.2237C12.6121 10.1069 12.6828 10.0034 12.7775 9.92502L16.1675 7.09752C16.61 6.73002 16.385 5.98752 15.8075 5.95002L11.3825 5.66502C11.2618 5.65799 11.1457 5.61595 11.0485 5.54403C10.9512 5.4721 10.8771 5.37341 10.835 5.26002L9.18502 1.10502C9.14134 0.984946 9.06178 0.881221 8.95712 0.807925C8.85247 0.734629 8.72779 0.695313 8.60002 0.695312C8.47225 0.695312 8.34758 0.734629 8.24292 0.807925C8.13826 0.881221 8.0587 0.984946 8.01502 1.10502L6.36502 5.26002C6.32297 5.37341 6.2488 5.4721 6.15156 5.54403C6.05433 5.61595 5.93826 5.65799 5.81752 5.66502L1.39252 5.95002C0.815021 5.98752 0.590021 6.73002 1.03252 7.09752L4.42252 9.92502C4.51727 10.0034 4.58796 10.1069 4.62644 10.2237C4.66492 10.3404 4.66963 10.4657 4.64002 10.585L3.62752 14.575C3.45502 15.25 4.17502 15.7975 4.75252 15.43L8.27002 13.2025C8.36866 13.1398 8.48313 13.1065 8.60002 13.1065C8.71691 13.1065 8.83138 13.1398 8.93002 13.2025V13.2025Z" fill="#FEC84B"/>
</svg>
