<svg width="100" height="100" viewBox="0 0 100 100" fill="none" xmlns="http://www.w3.org/2000/svg">
<circle cx="50" cy="50" r="50" fill="#F8FAFC"/>
<path d="M39.167 38.1476C39.167 36.3671 39.167 35.4769 39.5382 34.9862C39.8616 34.5587 40.3559 34.2941 40.8911 34.2622C41.5053 34.2255 42.246 34.7193 43.7274 35.7069L63.006 48.5593C64.2301 49.3753 64.8421 49.7834 65.0554 50.2977C65.2419 50.7473 65.2419 51.2526 65.0554 51.7022C64.8421 52.2165 64.2301 52.6246 63.006 53.4406L43.7274 66.293C42.246 67.2806 41.5053 67.7744 40.8911 67.7377C40.3559 67.7058 39.8616 67.4412 39.5382 67.0137C39.167 66.523 39.167 65.6328 39.167 63.8523V38.1476Z" fill="#0F172A"/>
</svg>
